<?xml version="1.0" encoding="utf-8"?>
<!-- Generator: Adobe Illustrator 19.2.1, SVG Export Plug-In . SVG Version: 6.00 Build 0)  -->
<svg version="1.1" id="Layer_1" xmlns="http://www.w3.org/2000/svg" xmlns:xlink="http://www.w3.org/1999/xlink" x="0px" y="0px"
	 viewBox="0 0 1920 1080" style="enable-background:new 0 0 1920 1080;" xml:space="preserve">
<style type="text/css">
	.st0{fill:none;}
	.st1{font-family:'Calibri-Light';}
	.st2{font-size:200px;}
</style>
<g>
	<path d="M322,516.7c-30.4,16.7-57.6,31.8-85,46.5c-3.3,1.8-8.6,3.6-11.3,2.1c-35.8-19.1-71.3-38.7-109-59.4
		c19.9-11,37.9-21,56-30.9c15.9-8.8,31.7-18,48-25.9c4.5-2.2,11.8-2.6,16.1-0.4c32.6,17.2,64.8,35.1,96.9,53.1
		c3.6,2,8.1,6.4,8.2,9.8c0.7,24.7,0.4,49.4,0.4,74.9c-6.9,0-12.8,0-20.2,0C322,564.5,322,542.2,322,516.7z"/>
	<path d="M157.4,548.9c18.1,9.8,34.5,16.8,48.7,26.9c16.5,11.7,30.2,11.3,46.5-0.3c13.9-9.9,30-16.8,47.8-26.4
		c0,14.1,0.4,26.4-0.3,38.5c-0.1,2.4-4.4,5-7.3,6.6c-18.9,10.5-37.7,21.2-57,30.9c-3.7,1.9-10.1,1.5-13.9-0.4
		c-17.8-8.9-35-19-52.6-28c-8.6-4.4-13.3-9.8-12-20.2C158.3,568.5,157.4,560.2,157.4,548.9z"/>
</g>
<rect x="388" y="450.7" class="st0" width="1302" height="274"/>
<text transform="matrix(1 0 0 1 388 586.3002)" class="st1 st2">Eager Academy</text>
</svg>
